<svg width="64" height="64" version="1.1" xmlns="http://www.w3.org/2000/svg">
 <circle cx="32" cy="33" r="28" style="opacity:.2"/>
 <path d="m60 32c0 15.463972-12.536028 28-28 28-7.95222 0-15.13016-3.315084-20.227234-8.638664-4.814751-5.028712-4.0452118-10.029148-4.0452118-17.540902 0-15.463973 8.6350978-25.486069 24.099072-25.486069 15.463972 0 28.173374 8.2016618 28.173374 23.665635z" style="fill:#fff55d"/>
 <path d="m32 5.000844c-15.463973 0-28 12.536027-28 28 0.00692 7.423412 2.9622358 14.539472 8.214844 19.785156l19.785156-19.785156h28c0-15.463973-12.536028-28-28-28z" style="opacity:.1"/>
 <path d="m60 32h-28v-28c15.463972 0 28 12.536027 28 28z" style="fill:#4098fe"/>
 <path d="M 32,4 C 16.536027,4 4,16.536027 4,32 4.00692,39.423412 6.9614544,46.540252 12.214062,51.785936 L 32,32 Z" style="fill:#24db65"/>
 <path d="M 32,27.8 12.214062,47.585936 C 7.455747,42.818652 4.575396,36.495858 4.1011718,29.776952 4.0380028,30.516334 4.0042522,31.257936 4,32 4.00692,39.423412 6.9614544,46.540252 12.214062,51.785936 L 32,32 Z" style="fill:#25a068"/>
 <path d="m32 26v6h28c0-2.060914-0.237584-4.065838-0.660156-6z" style="fill:#2379e0"/>
 <path d="M 32 4 A 28 28 0 0 0 4 32 A 28 28 0 0 0 4.0175781 32.492188 A 28 28 0 0 1 32 5 A 28 28 0 0 1 59.974609 32.492188 A 28 28 0 0 0 60 32 A 28 28 0 0 0 32 4 z" style="fill:#ffffff;opacity:.2"/>
</svg>
