<svg width="64" height="64" preserveAspectRatio="xMidYMid" version="1.1" xmlns="http://www.w3.org/2000/svg">
 <path d="m4 48.532v2c0 1.93 1.6 3.468 3.5 3.468h49c1.95 0 3.5-1.538 3.5-3.468v-2c0 1.93-1.55 3.468-3.5 3.468h-49c-1.9 0-3.5-1.538-3.5-3.468z" style="opacity:.2"/>
 <path d="m54.791139 51.924051-2.63924 1.075949h-40.506329l-1.9303801-0.886076c-1.7267762-0.792619-3.4955564-1.0567-4.386076-2.770797l-0.1898734-34.433089s1.7845632-0.698677 2.4873418-2.517633l0.5379747-1.392405h47.594937l0.550633 1.012658c0.907625 1.669196 1.367775 2.229515 2.42405 3.846747l0.316456 33.673595s-2.453782 1.654909-4.259494 2.391051z" style="fill:#e4e4e4"/>
 <path d="m7.4882 11.2003c-1.6992 0-3.0944 1.211-3.4182 2.7734-2.55e-4 0.0012 2.538e-4 0.0027 0 0.0039-0.06094 0.46162-0.062288 0.8164-0.062288 0.8164v34.7097c0 1.92028 1.54384 3.518 3.4842 3.496h4.5158v-38.2057c0-0.2342-0.024-0.4472-0.07-0.637-0.232-0.999-1.4152-2.1254-2.624-2.957z" style="fill:#b63728"/>
 <path d="m7.5 11c-1.95 0-1.5727273 1.913823-1.5727273 3.796023v1c0-1.8822-0.3772727-3.796023 1.5727273-3.796023h49c1.9 0-0.754545 3.282605-0.754545 5.214205v-1c0-1.9316 0.945642-2.740628 0.536363-4.596023l-0.136363-0.618182h-0.363637z" style="fill:#ffffff;opacity:.2"/>
 <path d="m55.308 11.5c-1.674 0.478-3.346 1.424-3.308 2.996v38.504h4.43c2.018 0 3.57-1.56 3.57-3.446v-34.586c0-1.9308-1.6-3.468-3.5-3.468z" style="fill:#b63728"/>
 <path d="m56.05749 12.014887a3.9927108 3.9931005 0 0 0-2.489347 0.832462l-21.558092 16.16966-21.558092-16.16966a3.9927108 3.9931005 0 1 0-4.7915539 6.386763l23.953869 17.967155a3.9927108 3.9931005 0 0 0 4.791554 0l23.95387-17.967155a3.9927108 3.9931005 0 0 0-2.302208-7.219225z" style="fill-rule:evenodd;opacity:.2"/>
 <path d="m56.05749 11.014887a3.9927108 3.9931005 0 0 0-2.489347 0.832462l-21.558092 16.16966-21.558092-16.16966a3.9927108 3.9931005 0 1 0-4.7915539 6.386763l23.953869 17.967155a3.9927108 3.9931005 0 0 0 4.791554 0l23.95387-17.967155a3.9927108 3.9931005 0 0 0-2.302208-7.219225z" style="fill-rule:evenodd;fill:#d54b3d"/>
</svg>
