<svg width="22" height="22" version="1.1" xmlns="http://www.w3.org/2000/svg">
 <circle cx="11" cy="11.5" r="10" style="opacity:.2"/>
 <path d="m21 11c0 5.522847-4.477153 10-10 10-2.8400785 0-5.4036285-1.183959-7.2240122-3.085237-1.7195539-1.795969-1.4447184-3.581839-1.4447184-6.264608 0-5.5228475 3.0839636-9.1021674 8.6068116-9.1021674 5.522847 0 10.061919 2.9291649 10.061919 8.4520124z" style="fill:#fff55d"/>
 <path d="m11 1.500094c-5.5228475 0-10 4.4771525-10 10 0.00247 2.651219 1.0576623 5.192947 2.9335937 7.066406l7.0664063-7.066406h10c0-5.5228475-4.477153-10-10-10z" style="opacity:.1"/>
 <path d="m21 11h-10v-10c5.522847 0 10 4.4771525 10 10z" style="fill:#4098fe"/>
 <path d="M 11,1 C 5.4771525,1 1,5.4771525 1,11 c 0.00247,2.651219 1.0576623,5.192947 2.9335937,7.066406 L 11,11 Z" style="fill:#24db65"/>
 <path d="M 11,1 A 10,10 0 0 0 1,11 10,10 0 0 0 1.01075,11.291 10,10 0 0 1 11,1.5 10,10 0 0 1 20.9895,11.209 10,10 0 0 0 21,11 10,10 0 0 0 11,1 Z" style="fill:#ffffff;opacity:.2"/>
 <path d="M 11,9.5 3.9335937,16.566406 C 2.2341953,14.863804 1.2054986,12.605664 1.0361328,10.206055 1.0135724,10.470119 1.0015187,10.734977 1,11 c 0.00247,2.651219 1.0576623,5.192947 2.9335937,7.066406 L 11,11 Z" style="fill:#25a068"/>
 <path d="m11 9v2h10c0-0.684879-0.06904-1.353826-0.200196-2z" style="fill:#2379e0"/>
</svg>
