<svg width="22" height="22" preserveAspectRatio="xMidYMid" version="1.1" xmlns="http://www.w3.org/2000/svg">
 <path d="m18.757299 18.416058-0.633211 0.583942h-14.30657l-0.5164233-0.875912c-0.3446339-0.584538-1.0439742-0.246432-1.600365-0.654259l-0.1167883-12.056846s0.3274711-0.6212077 0.8120438-1.1214117l0.2828467-0.2919708h16.729927l0.341241 0.4671533c0.40026 0.5479498 0.693804 0.210059 0.928832 0.8586379l-0.350365 12.319621s-1.059202 0.298917-1.571168 0.771046z" style="fill:#e4e4e4"/>
 <path d="m19.725 4.7743c-0.696 0-1.725 0.6876-1.725 1.3734v12.8523h1.725c0.695 0 1.275-0.545 1.275-1.23v-12.2223c0-0.6858-0.58-0.7734-1.275-0.7734z" style="fill:#376bc9"/>
 <path d="m2.244 4.79177c-0.6083 0-1.1067 0.095277-1.2197 0.58203-0.0157 0.0679-0.0243 0.1436-0.0243 0.2276v12.16843c0 0.685 0.5509 1.23 1.244 1.23h1.756v-12.59943c0-0.0832-0.0089-0.1594-0.0253-0.2272-0.113-0.4867-1.1224-1.3816-1.7307-1.3816z" style="fill:#376bc9"/>
 <path d="m1 17.762v0.5c0 0.69 0.5714 1.238 1.25 1.238h17.5c0.69643 0 1.25-0.54842 1.25-1.2383v-0.5c0 0.69-0.554 1.238-1.25 1.238h-17.5c-0.6786 0-1.25-0.548-1.25-1.238z" style="opacity:.2"/>
 <path d="m2.3083942 4.4087591c-0.4868403 0.4979554-0.6007549-2.224e-4 -0.7536497 0.6543584l-0.1167883 0.5c0-0.6722 0.4247466-0.1738683 0.9288321-0.6543584l0.4288321-0.4087591h16.70073 0.25365c0.67857 0 0.812044 0.1396609 0.812044 0.8295409v-0.120438c0-0.2091029-0.500941-0.1835781-0.841241-0.7711467l-0.25365-0.4379562h-16.759124z" style="fill:#ffffff;opacity:.2"/>
 <path d="m2.5021745 4.501631a1.4975228 1.4978717 0 0 0-0.9397576 2.6678171l8.4851151 6.9893699a1.4975228 1.4978717 0 0 0 1.902911 0l8.485114-6.9893699a1.4975228 1.4978717 0 1 0-1.902911-2.3128882l-7.533659 6.2054061-7.5336584-6.2054061a1.4975228 1.4978717 0 0 0-0.9631541-0.3549289z" style="fill-rule:evenodd;opacity:.2"/>
 <path d="m2.5021745 4.0015362a1.4975228 1.4978717 0 0 0-0.9397576 2.6678171l8.4851151 6.9893687a1.4975228 1.4978717 0 0 0 1.902911 0l8.485114-6.9893687a1.4975228 1.4978717 0 1 0-1.902911-2.3128882l-7.533659 6.2054049-7.5336584-6.2054049a1.4975228 1.4978717 0 0 0-0.9631541-0.3549289z" style="fill-rule:evenodd;fill:#4f8cf6"/>
</svg>
