<svg width="48" height="48" version="1.1" xmlns="http://www.w3.org/2000/svg">
 <circle cx="24" cy="25" r="20" style="opacity:.2"/>
 <path d="m44 24c0 11.045695-8.954305 20-20 20-5.680157 0-10.807257-2.367917-14.448024-6.170474-3.4391079-3.591937-2.889437-7.163678-2.889437-12.529216 0-11.045695 6.1679273-18.204335 17.213622-18.204335s20.123839 5.8583298 20.123839 16.904025z" style="fill:#fff55d"/>
 <path d="m24 5.000188c-11.045695 0-20 8.954305-20 20 0.00494 5.302437 2.1153245 10.385895 5.8671875 14.132812l14.132812-14.132812h20c0-11.045695-8.954305-20-20-20z" style="opacity:.1"/>
 <path d="m44 24h-20v-20c11.045695 0 20 8.954305 20 20z" style="fill:#4098fe"/>
 <path d="M 24,4 C 12.954305,4 4,12.954305 4,24 c 0.00494,5.302437 2.1153245,10.385895 5.8671875,14.132812 L 24,24 Z" style="fill:#24db65"/>
 <path d="M 24,4 A 20,20 0 0 0 4,24 20,20 0 0 0 4.0215,24.582 20,20 0 0 1 24,5 20,20 0 0 1 43.979,24.418 20,20 0 0 0 44,24 20,20 0 0 0 24,4 Z" style="fill:#ffffff;opacity:.2"/>
 <path d="M 24,21 9.8671875,35.132812 C 6.4683907,31.727608 4.4109972,27.211327 4.0722656,22.412109 4.0271449,22.940239 4.0030373,23.469955 4,24 c 0.00494,5.302437 2.1153245,10.385895 5.8671875,14.132812 L 24,24 Z" style="fill:#25a068"/>
 <path d="m24 20v4h20c0-1.369758-0.138079-2.707653-0.400391-4h-19.599609z" style="fill:#2379e0"/>
</svg>
