<svg width="32" height="32" version="1.1" xmlns="http://www.w3.org/2000/svg">
 <circle cx="16" cy="17" r="14" style="opacity:.2"/>
 <path d="m30 16c0 7.731986-6.268014 14-14 14-3.97611 0-7.5650799-1.657542-10.113617-4.319332-2.4073755-2.514356-2.0226059-5.014574-2.0226059-8.770451 0-7.7319865 4.3175491-12.743034 12.049536-12.743034 7.731986 0 14.086687 4.1008309 14.086687 11.832817z" style="fill:#fff55d"/>
 <path d="m16 3.000422c-7.7319865 0-14 6.2680135-14 14 0.00346 3.711706 1.4811179 7.269736 4.1074219 9.892578l9.8925781-9.892578h14c0-7.7319865-6.268014-14-14-14z" style="opacity:.1"/>
 <path d="m30 16h-14v-14c7.731986 0 14 6.2680135 14 14z" style="fill:#4098fe"/>
 <path d="M 16,2 C 8.2680135,2 2,8.2680135 2,16 c 0.00346,3.711706 1.4807272,7.270126 4.1070312,9.892968 L 16,16 Z" style="fill:#24db65"/>
 <path d="M 16,13.9 6.1070312,23.792968 C 3.7278735,21.409326 2.287698,18.247929 2.0505859,14.888476 2.0190014,15.258167 2.0021261,15.628968 2,16 c 0.00346,3.711706 1.4807272,7.270126 4.1070312,9.892968 L 16,16 Z" style="fill:#25a068"/>
 <path d="m16 13v3h14c0-1.030457-0.118792-2.032919-0.330078-3h-13.669922z" style="fill:#2379e0"/>
 <path d="M 16 2 A 14 14 0 0 0 2 16 A 14 14 0 0 0 2.0214844 16.585938 A 14 14 0 0 1 16 3 A 14 14 0 0 1 29.978516 16.414062 A 14 14 0 0 0 30 16 A 14 14 0 0 0 16 2 z" style="fill:#ffffff;opacity:.2"/>
</svg>
