<svg width="32" height="32" preserveAspectRatio="xMidYMid" version="1.1" xmlns="http://www.w3.org/2000/svg">
 <path d="m2.0000018 24.266001v1c0 0.964999 0.7999999 1.733999 1.7499999 1.733999h24.499998c0.975 0 1.75-0.769 1.75-1.733999v-1c0 0.965-0.775 1.734-1.75 1.734h-24.499998c-0.95 0-1.7499999-0.769-1.7499999-1.734z" style="opacity:.2"/>
 <path d="m27.39557 25.462026-1.31962 0.537974h-20.253163l-0.96519-0.443038c-0.8633881-0.396309-1.7477781-0.528349-2.1930379-1.385398l-0.0949367-17.216543s0.8922816-0.3493385 1.2436708-1.2588164l0.2689874-0.6962025h23.797467l0.275317 0.506329c0.453812 0.8345979 0.683887 1.1147574 1.212025 1.9233734l0.158228 16.836797s-1.226891 0.827454-2.129747 1.195525z" style="fill:#e4e4e4"/>
 <path d="m3.7441017 5.1001517c-0.8496 0-1.5471999 0.6055-1.7090999 1.3866999-1.275e-4 6e-4 1.269e-4 0.00135 0 0.00195-0.03047 0.23081-0.031144 0.4082-0.031144 0.4082v17.354849c0 0.96014 0.7719199 1.758999 1.7420999 1.747999h2.2578999v-19.102848c0-0.1171-0.012-0.2236-0.035-0.3185-0.116-0.4994999-0.7076-1.0626999-1.312-1.4784999z" style="fill:#376bc9"/>
 <path d="m27.654 5.2500017c-0.837 0.239-1.673 0.712-1.654 1.4979999v19.251998h2.215c1.009 0 1.785-0.779999 1.785-1.722999v-17.292999c0-0.9653999-0.8-1.7339999-1.75-1.7339999z" style="fill:#376bc9"/>
 <path d="m28.028745 6.0074447a1.9963553 1.9965501 0 0 0-1.244673 0.416231l-10.779046 8.0848293-10.779045-8.0848293a1.9963553 1.9965501 0 1 0-2.3957768 3.1933813l11.976934 8.983576a1.9963553 1.9965501 0 0 0 2.395777 0l11.976934-8.983576a1.9963553 1.9965501 0 0 0-1.151104-3.6096123z" style="fill-rule:evenodd;opacity:.2"/>
 <path d="m3.7500017 5.016001h24.499998c1.064402 2.6941591 0.433044 1.0128215 0 0.999999h-24.499998c-1.5076 1.6146947-0.7500017-0.351778 0-0.999999z" style="fill:#ffffff;opacity:.2"/>
 <path d="m28.028745 5.0074452a1.9963553 1.9965501 0 0 0-1.244673 0.416231l-10.779046 8.0848298-10.779045-8.0848298a1.9963553 1.9965501 0 1 0-2.3957768 3.1933813l11.976934 8.9835765a1.9963553 1.9965501 0 0 0 2.395777 0l11.976934-8.9835765a1.9963553 1.9965501 0 0 0-1.151104-3.6096123z" style="fill-rule:evenodd;fill:#4f8cf6"/>
</svg>
