<svg width="24" height="24" version="1.1" xmlns="http://www.w3.org/2000/svg">
 <circle cx="12" cy="12.5" r="10" style="opacity:.2"/>
 <path d="m22 12c0 5.522847-4.477153 10-10 10-2.8400785 0-5.4036285-1.183959-7.2240122-3.085237-1.7195539-1.795969-1.4447184-3.581839-1.4447184-6.264608 0-5.5228475 3.0839636-9.1021674 8.6068116-9.1021674 5.522847 0 10.061919 2.9291649 10.061919 8.4520124z" style="fill:#fff55d"/>
 <path d="m12 2.500094c-5.5228475 0-10 4.4771525-10 10 0.00247 2.651219 1.0576623 5.192947 2.9335937 7.066406l7.0664063-7.066406h10c0-5.5228475-4.477153-10-10-10z" style="opacity:.1"/>
 <path d="m22 12h-10v-10c5.522847 0 10 4.4771525 10 10z" style="fill:#4098fe"/>
 <path d="M 12,2 C 6.4771525,2 2,6.4771525 2,12 c 0.00247,2.651219 1.0576623,5.192947 2.9335937,7.066406 L 12,12 Z" style="fill:#24db65"/>
 <path d="M 12,2 A 10,10 0 0 0 2,12 10,10 0 0 0 2.01075,12.291 10,10 0 0 1 12,2.5 10,10 0 0 1 21.9895,12.209 10,10 0 0 0 22,12 10,10 0 0 0 12,2 Z" style="fill:#ffffff;opacity:.2"/>
 <path d="M 12,10.5 4.9335937,17.566406 C 3.2341953,15.863804 2.2054986,13.605664 2.0361328,11.206055 2.0135724,11.470119 2.0015187,11.734977 2,12 c 0.00247,2.651219 1.0576623,5.192947 2.9335937,7.066406 L 12,12 Z" style="fill:#25a068"/>
 <path d="m12 10v2h10c0-0.684879-0.06904-1.353826-0.200196-2z" style="fill:#2379e0"/>
</svg>
