<svg width="16" height="16" version="1.1" xmlns="http://www.w3.org/2000/svg">
 <path d="m16 8c0 4.418278-3.581722 8-8 8-2.2720628 0-4.3229028-0.947167-5.7792097-2.46819-1.3756432-1.436774-1.1557748-2.865471-1.1557748-5.011686 0-4.418278 2.4671709-7.2817339 6.8854489-7.2817339 4.4182776 0 8.0495356 2.3433319 8.0495356 6.7616099z" style="fill:#fff55d"/>
 <path d="m16 8h-8v-8c4.418278 0 8 3.581722 8 8z" style="fill:#4098fe"/>
 <path d="M 8,0 C 3.581722,0 0,3.581722 0,8 c 0.001976,2.120975 0.8461298,4.154358 2.346875,5.653125 L 8,8 Z" style="fill:#24db65"/>
 <path d="M 8,6.8 2.346875,12.453125 C 0.98735628,11.091043 0.16439888,9.2845308 0.02890624,7.3648436 0.01085796,7.5760956 0.00121492,7.787982 0,8 c 0.001976,2.120975 0.8461298,4.154358 2.346875,5.653125 L 8,8 Z" style="fill:#25a068"/>
 <path d="m8 6v2h8c0-0.6920884-0.096502-1.3595153-0.261719-2h-7.738281z" style="fill:#2379e0"/>
</svg>
