<svg width="16" height="16" preserveAspectRatio="xMidYMid" version="1.1" xmlns="http://www.w3.org/2000/svg">
 <path d="m14.321334 13.586039-0.275893 0.413961h-12.038949l-0.3573326-0.501623c-0.3149648-0.442147-0.5593059-0.420944-1.0885216-0.577899l0.32041991-8.7465573c0.0196665-0.5368399-0.43819727-2.1739207 0.11894273-2.1739207h14c0.54286 0 0.532166 0.6038783 0.531938 1.1557682l-0.0041 9.8232948s-0.64941 0.606976-1.20655 0.606976z" style="fill:#e4e4e4"/>
 <path d="m0.99052 2.0465c-0.48358 0-0.88067 0.34466-0.97279 0.78934-7.258e-5 3.504e-4 7.223e-5 7.627e-4 0 0.00111-0.017346 0.1313-0.01773 0.2323-0.01773 0.2323v9.9357c0 0.54653 0.43939 1.0012 0.99162 0.99502h1.0084v-10.931c0-0.0663-0.0069-0.1269-0.0199-0.1809-0.066-0.2844-0.3324506-0.1032771-0.6764506-0.3399771z" style="fill:#b63728"/>
 <path d="m14.719014 2.383594c-0.479 0.1366-0.730014 0.166106-0.719014 0.615306v11.002h0.97991c0.577-1e-3 1.02-0.447 1.02-0.985v-10.025c0-0.5519-0.457-0.9911-1-0.9911z" style="fill:#b63728"/>
 <path d="m1.0361816 2.000685a0.99917917 0.9987072 0 0 0-0.60491131 1.8197278l6.9935549 4.9930368a0.99917917 0.9987072 0 0 0 1.1629906 0l6.9935542-4.9930368a1.0001247 0.99965229 0 0 0-1.16299-1.6266376l-6.4120595 4.5795508-6.4120596-4.5795508a0.99917917 0.9987072 0 0 0-0.5580793-0.1930902z" style="fill-rule:evenodd;fill:#d54b3d"/>
</svg>
